<svg width="43" height="56" viewBox="0 0 43 56" fill="none" xmlns="http://www.w3.org/2000/svg">
<path d="M30.485 0H1.463C0.655 0 0 0.655 0 1.926V55C0 55.345 0.655 56 1.463 56H41.537C42.345 56 43 55.345 43 55V12.978C43 12.282 42.907 12.058 42.743 11.893L31.107 0.257C30.942 0.093 30.718 0 30.485 0Z" fill="#E9E9E0"/>
<path d="M31 0.151001V12H42.849L31 0.151001Z" fill="#D9D7CA"/>
<path d="M41.537 56H1.463C0.655 56 0 55.345 0 54.537V39H43V54.537C43 55.345 42.345 56 41.537 56Z" fill="#8D8D8D"/>
<path d="M11 52.9531V43H14.4111C15.5368 43 16.3936 43.2256 16.9814 43.6768C17.5693 44.1279 17.8633 44.8001 17.8633 45.6934C17.8633 46.1491 17.7402 46.5592 17.4941 46.9238C17.248 47.2884 16.888 47.571 16.4141 47.7715C16.9518 47.9173 17.3665 48.193 17.6582 48.5986C17.9544 48.9997 18.1025 49.4827 18.1025 50.0479C18.1025 50.9821 17.8018 51.6999 17.2002 52.2012C16.6032 52.7025 15.7464 52.9531 14.6299 52.9531H11ZM12.7295 48.4619V51.5723H14.6504C15.1927 51.5723 15.6165 51.4378 15.9219 51.1689C16.2272 50.9001 16.3799 50.5264 16.3799 50.0479C16.3799 49.0133 15.8512 48.4847 14.7939 48.4619H12.7295ZM12.7295 47.1904H14.4248C14.9626 47.1904 15.3818 47.0697 15.6826 46.8281C15.988 46.582 16.1406 46.2357 16.1406 45.7891C16.1406 45.2969 15.9993 44.9414 15.7168 44.7227C15.4388 44.5039 15.0036 44.3945 14.4111 44.3945H12.7295V47.1904Z" fill="white"/>
<path d="M22.2172 52.9531H20.4946V43H22.2172V52.9531Z" fill="white"/>
<path d="M32.7987 52.9531H31.0692L26.6327 45.8916V52.9531H24.9032V43H26.6327L31.0829 50.0889V43H32.7987V52.9531Z" fill="white"/>
<path d="M23.1094 34C21.5585 34 20.2969 32.7384 20.2969 31.1875V29.875C20.2969 28.3241 21.5585 27.0625 23.1094 27.0625C24.6603 27.0625 25.9219 28.3241 25.9219 29.875V31.1875C25.9219 32.7384 24.6603 34 23.1094 34ZM23.1094 28.9375C22.5925 28.9375 22.1719 29.3581 22.1719 29.875V31.1875C22.1719 31.7044 22.5925 32.125 23.1094 32.125C23.6263 32.125 24.0469 31.7044 24.0469 31.1875V29.875C24.0469 29.3581 23.6263 28.9375 23.1094 28.9375ZM30.1875 34C28.6366 34 27.375 32.7384 27.375 31.1875V29.875C27.375 28.3241 28.6366 27.0625 30.1875 27.0625C31.7384 27.0625 33 28.3241 33 29.875V31.1875C33 32.7384 31.7384 34 30.1875 34ZM30.1875 28.9375C29.6706 28.9375 29.25 29.3581 29.25 29.875V31.1875C29.25 31.7044 29.6706 32.125 30.1875 32.125C30.7044 32.125 31.125 31.7044 31.125 31.1875V29.875C31.125 29.3581 30.7044 28.9375 30.1875 28.9375ZM16.0781 34C14.5272 34 13.2656 32.7384 13.2656 31.1875V29.875C13.2656 28.3241 14.5272 27.0625 16.0781 27.0625C17.629 27.0625 18.8906 28.3241 18.8906 29.875V31.1875C18.8906 32.7384 17.629 34 16.0781 34ZM16.0781 28.9375C15.5612 28.9375 15.1406 29.3581 15.1406 29.875V31.1875C15.1406 31.7044 15.5612 32.125 16.0781 32.125C16.595 32.125 17.0156 31.7044 17.0156 31.1875V29.875C17.0156 29.3581 16.595 28.9375 16.0781 28.9375ZM11.8125 27.1562H9.9375V33.8594H11.8125V27.1562ZM19.9341 16.9375C18.3832 16.9375 17.1216 15.6759 17.1216 14.125V12.8125C17.1216 11.2616 18.3832 10 19.9341 10C21.485 10 22.7466 11.2616 22.7466 12.8125V14.125C22.7466 15.6759 21.485 16.9375 19.9341 16.9375ZM19.9341 11.875C19.4172 11.875 18.9966 12.2956 18.9966 12.8125V14.125C18.9966 14.6419 19.4172 15.0625 19.9341 15.0625C20.451 15.0625 20.8716 14.6419 20.8716 14.125V12.8125C20.8716 12.2956 20.451 11.875 19.9341 11.875ZM15.6685 10.0937H13.7935V16.8437H15.6685V10.0937ZM11.9185 10.0937H10.0435V16.8437H11.9185V10.0937ZM26.9654 16.9375C25.4144 16.9375 24.1529 15.6759 24.1529 14.125V12.8125C24.1529 11.2616 25.4144 10 26.9654 10C28.5163 10 29.7779 11.2616 29.7779 12.8125V14.125C29.7779 15.6759 28.5163 16.9375 26.9654 16.9375ZM26.9654 11.875C26.4484 11.875 26.0279 12.2956 26.0279 12.8125V14.125C26.0279 14.6419 26.4484 15.0625 26.9654 15.0625C27.4823 15.0625 27.9029 14.6419 27.9029 14.125C27.9029 13.6081 27.9029 12.8125 27.9029 12.8125C27.9029 12.2956 27.4823 11.875 26.9654 11.875ZM11.8125 25.5156C10.2616 25.5156 9 24.254 9 22.7031V21.3906C9 19.8397 10.2616 18.5781 11.8125 18.5781C13.3634 18.5781 14.625 19.8397 14.625 21.3906V22.7031C14.625 24.254 13.3634 25.5156 11.8125 25.5156ZM11.8125 20.4531C11.2956 20.4531 10.875 20.8737 10.875 21.3906V22.7031C10.875 23.22 11.2956 23.6406 11.8125 23.6406C12.3294 23.6406 12.75 23.22 12.75 22.7031V21.3906C12.75 20.8737 12.3294 20.4531 11.8125 20.4531ZM17.9531 18.6719H16.0781V25.4219H17.9531V18.6719ZM22.1719 25.5156C20.621 25.5156 19.3594 24.254 19.3594 22.7031V21.3906C19.3594 19.8397 20.621 18.5781 22.1719 18.5781C23.7228 18.5781 24.9844 19.8397 24.9844 21.3906V22.7031C24.9844 24.254 23.7228 25.5156 22.1719 25.5156ZM22.1719 20.4531C21.655 20.4531 21.2344 20.8737 21.2344 21.3906V22.7031C21.2344 23.22 21.655 23.6406 22.1719 23.6406C22.6888 23.6406 23.1094 23.22 23.1094 22.7031V21.3906C23.1094 20.8737 22.6888 20.4531 22.1719 20.4531ZM32.0156 18.6719H30.1406V25.4219H32.0156V18.6719ZM28.2656 18.6719H26.3906V25.4219H28.2656V18.6719Z" fill="#8D8D8D"/>
</svg>
